<?xml version="1.0" standalone="no"?><!DOCTYPE svg PUBLIC "-//W3C//DTD SVG 1.1//EN" "http://www.w3.org/Graphics/SVG/1.1/DTD/svg11.dtd"><svg t="1726826444898" class="icon" viewBox="0 0 1024 1024" version="1.1" xmlns="http://www.w3.org/2000/svg" p-id="11814" xmlns:xlink="http://www.w3.org/1999/xlink" width="200" height="200"><path d="M642.616889 974.165333c-3.868444-212.081778-95.118222-381.610667-207.530667-381.610666-112.412444 0-203.662222 169.756444-207.530666 381.610666h415.061333z" fill="#63C5E0" p-id="11815"></path><path d="M651.036444 982.357333H219.136l0.227556-8.419555c4.096-218.680889 98.759111-389.802667 215.722666-389.802667s211.626667 171.121778 215.722667 389.802667l0.227555 8.419555z m-415.061333-16.611555h397.994667c-6.144-202.069333-94.435556-365.226667-199.111111-365.226667-104.448 0.227556-192.739556 163.157333-198.883556 365.226667z" fill="#292B2B" p-id="11816"></path><path d="M353.393778 494.705778a105.813333 94.890667 90 1 0 189.781333 0 105.813333 94.890667 90 1 0-189.781333 0Z" fill="#FDEEE5" p-id="11817"></path><path d="M448.284444 607.118222c-55.978667 0-101.717333-50.517333-101.717333-112.412444s45.511111-112.412444 101.717333-112.412445 101.717333 50.517333 101.717334 112.412445-45.738667 112.412444-101.717334 112.412444z m0-211.626666c-48.696889 0-88.291556 44.600889-88.291555 99.214222s39.594667 99.214222 88.291555 99.214222 88.291556-44.600889 88.291556-99.214222-39.594667-99.214222-88.291556-99.214222z" fill="#212121" p-id="11818"></path><path d="M357.262222 471.267556c9.784889-47.559111 46.876444-82.830222 91.249778-82.830223 44.600889 0 81.692444 35.498667 91.249778 82.830223H357.262222z" fill="#FFFFFF" p-id="11819"></path><path d="M547.953778 477.866667h-198.883556l1.592889-7.964445c10.695111-51.882667 50.744889-88.291556 97.848889-88.291555s87.153778 36.181333 97.848889 88.291555l1.592889 7.964445z m-182.272-13.198223h165.660444c-11.605333-41.415111-44.600889-69.632-82.830222-69.632-38.229333 0-71.224889 28.216889-82.830222 69.632z" fill="#212121" p-id="11820"></path><path d="M722.944 527.473778c-2.503111-6.826667-5.688889-13.198222-9.329778-19.114667-2.730667-4.778667-8.874667-12.515556-8.874666-12.515555-17.294222-20.48-41.642667-33.450667-68.949334-33.450667-32.085333 0-60.302222 17.976889-77.596444 45.283555-0.227556 0-40.049778 81.692444-48.924445 165.888 28.672-10.467556 53.248-18.659556 60.074667-15.018666 6.826667 3.868444 20.935111 11.605333 24.348444 13.653333 3.640889 2.275556 6.144-9.329778 8.192-38.912 11.377778 11.377778 51.655111 9.102222 57.344 1.365333 2.275556 8.419556-0.682667 30.264889 11.377778 37.774223 1.137778 0.682667 2.958222 0.682667 4.323556 0 25.258667-14.791111 29.809778-17.294222 48.469333-12.288 21.845333 5.916444 37.774222 11.150222 37.774222 11.150222-4.096-27.306667-16.611556-93.525333-38.229333-143.815111z" fill="#FFFFFF" p-id="11821"></path><path d="M501.532444 683.121778l1.137778-10.467556c5.916444-57.344 35.726222-148.593778 50.744889-167.936l-0.910222-0.682666c18.887111-30.264889 50.062222-48.241778 83.057778-48.241778 28.216889 0 54.385778 12.515556 73.728 35.498666 2.503111 2.048 5.688889 6.371556 10.012444 13.880889 3.868444 6.371556 7.281778 13.198222 9.784889 20.024889 21.390222 49.379556 34.133333 114.688 38.456889 145.635556l1.365333 10.695111-10.24-3.413333c-0.227556 0-15.928889-5.233778-37.319111-10.922667-15.928889-4.323556-18.659556-2.730667-43.463111 11.605333-3.413333 2.048-7.736889 2.048-11.150222 0-11.605333-7.054222-12.743111-22.072889-13.425778-33.223111-4.778667 1.365333-10.24 2.048-14.791111 2.503111-10.012444 0.682667-21.845333 0-31.175111-3.185778-2.048 25.713778-4.778667 31.402667-9.329778 33.905778l-3.413333 1.820445-4.778667-2.048c-3.185778-2.048-17.294222-9.784889-24.120889-13.653334-6.371556-2.503111-41.415111 10.467556-54.840889 15.246223l-9.329778 2.958222z m172.487112-16.156445z m-2.503112-0.227555c0 0.227556 0 0.227556 0 0 0 0.227556 0 0 0 0z m-9.557333-46.876445l3.413333 12.970667c0.910222 2.958222 1.137778 6.826667 1.365334 11.150222 0.455111 7.964444 1.137778 17.749333 5.916444 22.072889 24.803556-14.336 31.175111-17.749333 52.337778-12.288 11.377778 2.958222 21.162667 5.916444 27.761778 7.964445-5.233778-32.768-17.294222-88.746667-35.953778-131.754667l-0.227556-0.227556c-2.275556-6.144-5.233778-12.060444-8.874666-17.976889-1.592889-2.958222-4.551111-7.054222-6.371556-9.329777l-2.048-2.275556c-16.611556-20.252444-39.367111-31.175111-63.715555-31.175111-28.444444 0-55.296 15.701333-71.907556 42.097778-1.592889 3.185778-36.181333 74.865778-46.648889 152.462222 31.402667-11.150222 47.559111-15.246222 55.523556-10.922667 5.006222 2.730667 13.653333 7.509333 19.342222 10.922667 0.910222-4.323556 2.048-13.198222 3.185778-30.492444l0.910222-14.563556 10.467556 10.467556c8.419556 8.419556 42.552889 6.371556 47.559111 2.048l7.964444-11.150223z" fill="#212121" p-id="11822"></path><path d="M809.415111 974.620444c-3.413333-182.954667-82.147556-329.500444-179.086222-329.500444s-175.672889 146.545778-179.086222 329.500444h358.172444z" fill="#D4648E" p-id="11823"></path><path d="M817.834667 983.04H442.823111l0.227556-8.419556c3.413333-189.326222 85.788444-337.692444 187.505777-337.692444s183.864889 148.366222 187.505778 337.692444l-0.227555 8.419556z m-358.172445-16.611556h341.333334c-5.461333-173.397333-81.237333-312.888889-170.666667-312.888888s-165.205333 139.491556-170.666667 312.888888z" fill="#292B2B" p-id="11824"></path><path d="M558.193778 567.978667a98.531556 76.003556 90 1 0 152.007111 0 98.531556 76.003556 90 1 0-152.007111 0Z" fill="#FDEEE5" p-id="11825"></path><path d="M634.197333 673.336889c-45.511111 0-82.602667-47.331556-82.602666-105.358222s37.091556-105.358222 82.602666-105.358223 82.602667 47.331556 82.602667 105.358223-37.091556 105.358222-82.602667 105.358222z m0-197.290667c-38.229333 0-69.176889 41.187556-69.176889 91.932445S596.195556 659.911111 634.197333 659.911111c38.229333 0 69.176889-41.187556 69.176889-91.932444s-30.947556-91.932444-69.176889-91.932445z" fill="#212121" p-id="11826"></path><path d="M722.033778 540.216889c-9.329778-44.145778-44.600889-77.141333-86.926222-77.141333-42.325333 0-77.824 32.995556-86.926223 77.141333h173.852445z" fill="#FFFFFF" p-id="11827"></path><path d="M730.225778 546.816h-190.236445l1.592889-7.964444c10.24-48.469333 48.696889-82.375111 93.525334-82.375112 44.828444 0 83.285333 33.905778 93.525333 82.375112l1.592889 7.964444z m-173.624889-13.198222h157.013333c-11.150222-38.001778-42.552889-63.715556-78.506666-63.715556-35.953778-0.227556-67.356444 25.713778-78.506667 63.715556zM767.089778 975.530667l-20.935111-1.137778c-0.910222-24.576-13.425778-97.848889-18.204445-124.017778l20.024889-6.144c0.910222 3.868444 17.976889 98.076444 19.114667 131.299556zM497.208889 975.530667l20.935111-1.137778c0.910222-24.576 13.425778-97.848889 18.204444-124.017778l-20.024888-6.144c-0.910222 3.868444-17.976889 98.076444-19.114667 131.299556zM279.438222 970.524444l20.935111-1.137777c0.910222-24.576 13.425778-97.848889 18.204445-124.017778l-20.024889-6.144c-0.910222 3.868444-17.976889 97.848889-19.114667 131.299555z" fill="#212121" p-id="11828"></path><path d="M34.588444 451.242667l84.878223 142.449777-104.448 63.488v-169.528888z" fill="#0B9183" p-id="11829"></path><path d="M59.392 451.697778l73.272889 120.376889-17.976889 11.377777-73.500444-120.832z" fill="#212121" p-id="11830"></path><path d="M71.224889 576.625778m-13.425778 0a13.425778 13.425778 0 1 0 26.851556 0 13.425778 13.425778 0 1 0-26.851556 0Z" fill="#F3E953" p-id="11831"></path><path d="M65.763556 457.386667c17.066667-10.24 68.266667-95.345778 72.817777-128.341334 13.653333-32.995556 37.546667-23.893333 58.026667-23.893333 38.684444-13.653333 188.643556-67.128889 256.682667-60.302222 2.275556 11.377778 9.102222 34.133333-136.305778 82.830222 4.551111 17.066667-2.275556 48.924444-70.542222 86.243556-34.133333 56.888889-17.066667 78.279111-51.2 101.034666-34.133333 22.755556-72.817778 42.097778-72.817778 42.097778L65.763556 457.386667z" fill="#FDEEE5" p-id="11832"></path><path d="M119.921778 566.158222L56.888889 454.883556l5.461333-3.413334c14.563556-8.874667 65.080889-91.704889 69.632-123.562666l0.455111-1.592889c12.970667-31.630222 35.498667-29.809778 53.475556-28.444445 3.185778 0.227556 6.371556 0.455111 9.557333 0.455111l0.455111-0.227555c125.610667-44.373333 212.536889-64.625778 258.048-60.074667l4.778667 0.455111 0.910222 4.778667c3.868444 19.569778-3.185778 43.690667-135.395555 88.746667 2.048 18.659556-7.736889 50.517333-73.272889 86.926222-14.108444 23.893333-18.887111 41.415111-22.755556 55.296-5.006222 18.204444-8.647111 32.312889-29.582222 46.193778-34.133333 22.755556-73.045333 42.325333-73.500444 42.325333l-5.233778 3.413333z m-45.738667-107.178666L125.155556 548.408889c11.832889-6.144 40.732444-21.617778 66.446222-38.684445 16.611556-11.150222 19.569778-21.390222 24.120889-38.684444 4.096-15.018667 9.102222-33.905778 25.031111-60.302222l0.910222-1.592889 1.592889-0.910222c69.404444-38.229333 70.087111-67.811556 67.128889-78.734223l-1.592889-5.916444 5.916444-2.048c117.191111-39.367111 131.754667-60.302222 132.437334-70.542222-45.283556-2.503111-128.113778 17.749333-246.897778 59.619555l-3.868445 1.137778c-3.868444 0-7.736889-0.227556-11.605333-0.682667-17.066667-1.365333-30.492444-2.275556-40.049778 19.569778-5.006222 32.540444-48.469333 107.633778-70.542222 128.341334z" fill="#212121" p-id="11833"></path><path d="M173.624889 401.180444c-0.910222 0-2.048-0.455111-2.730667-1.137777a4.255289 4.255289 0 0 1-0.227555-5.916445c5.233778-5.461333 9.784889-10.695111 14.336-15.701333 27.534222-30.264889 47.559111-52.110222 95.345777-65.080889 2.275556-0.682667 4.551111 0.682667 5.006223 2.958222 0.682667 2.275556-0.682667 4.551111-2.958223 5.006222-45.738667 12.288-63.943111 32.312889-91.477333 62.577778-4.551111 5.006222-9.329778 10.24-14.563555 15.701334-0.455111 1.365333-1.592889 1.592889-2.730667 1.592888z" fill="#212121" p-id="11834"></path><path d="M259.868444 342.471111c10.24-8.192 23.893333-21.162667 39.139556-9.102222l1.365333 1.365333c6.371556 9.329778 3.185778 22.300444-15.701333 34.816-2.048 1.365333-5.006222 1.137778-6.826667-0.682666l-18.204444-18.204445c-2.503111-2.503111-2.275556-6.144 0.227555-8.192z" fill="#FDEEE5" p-id="11835"></path><path d="M281.713778 372.053333a7.054222 7.054222 0 0 1-5.006222-2.048l-18.204445-18.204444a6.872178 6.872178 0 0 1-2.048-5.461333c0-2.048 1.137778-3.868444 2.730667-5.006223l2.048-1.592889c10.012444-8.192 23.893333-19.569778 39.139555-7.509333 0.682667 0.455111 1.137778 1.137778 1.592889 1.592889 2.958222 4.096 3.868444 8.874667 2.958222 13.653333-1.592889 7.964444-8.192 15.928889-19.114666 23.438223-1.592889 0.682667-2.958222 1.137778-4.096 1.137777z m4.323555-41.870222c-8.647111 0-16.384 6.371556-23.210666 11.832889l-2.048 1.592889c-0.910222 0.682667-1.365333 1.592889-1.365334 2.730667 0 1.137778 0.455111 2.048 1.137778 2.958222l18.204445 18.204444c1.365333 1.365333 3.185778 1.592889 4.778666 0.455111 10.24-6.826667 16.384-14.108444 17.749334-21.162666 0.682667-4.096 0-7.736889-2.503112-11.150223-0.227556-0.227556-0.455111-0.682667-0.910222-0.910222a17.339733 17.339733 0 0 0-11.832889-4.551111z" fill="#212121" p-id="11836"></path><path d="M425.756444 253.041778s1.592889 12.970667-6.826666 14.108444-28.899556 4.551111-28.899556 4.551111l-4.551111-14.108444c0-0.227556 18.659556-5.688889 40.277333-4.551111z" fill="#FDEEE5" p-id="11837"></path><path d="M388.892444 273.521778l-5.461333-17.294222 1.592889-0.455112c0.682667-0.227556 19.342222-5.688889 40.96-4.551111h1.365333l0.227556 1.365334c0.682667 5.006222-0.227556 15.018667-8.192 16.156444-8.419556 1.137778-28.672 4.551111-28.899556 4.551111l-1.592889 0.227556z m-1.365333-15.018667l3.640889 11.150222c4.778667-0.682667 20.48-3.413333 27.534222-4.323555 5.461333-0.682667 5.688889-7.964444 5.461334-10.922667-16.839111-0.455111-31.857778 2.958222-36.636445 4.096zM15.018667 664.234667l-0.227556-19.797334 93.297778-53.703111-73.045333-122.652444-20.252445 29.582222-0.455111-25.031111 13.198222-25.258667c1.365333-2.730667 4.096-4.323556 7.054222-4.323555 3.640889 0.455111 5.688889 1.592889 7.281778 4.096l84.878222 142.449777c1.137778 1.820444 1.365333 4.096 0.910223 6.371556-0.455111 2.048-1.820444 3.868444-3.868445 5.006222L15.018667 664.234667z" fill="#212121" p-id="11838"></path><path d="M990.094222 453.973333l-84.878222 142.449778L1009.664 659.911111v-169.528889z" fill="#0B9183" p-id="11839"></path><path d="M965.290667 454.428444l-73.272889 120.376889 17.976889 11.377778 73.500444-120.832z" fill="#212121" p-id="11840"></path><path d="M953.457778 579.356444m-13.425778 0a13.425778 13.425778 0 1 0 26.851556 0 13.425778 13.425778 0 1 0-26.851556 0Z" fill="#F3E953" p-id="11841"></path><path d="M958.919111 460.117333c-17.066667-10.24-68.266667-95.345778-72.817778-128.341333-13.653333-32.995556-37.546667-23.893333-58.026666-23.893333-38.684444-13.653333-188.643556-67.128889-256.682667-60.302223-2.275556 11.377778-9.102222 34.133333 136.305778 82.830223-4.551111 17.066667 2.275556 48.924444 70.542222 86.243555 34.133333 56.888889 17.066667 78.279111 51.2 101.034667 34.133333 22.755556 72.817778 42.097778 72.817778 42.097778l56.661333-99.669334z" fill="#FDEEE5" p-id="11842"></path><path d="M904.760889 568.661333l-5.688889-2.730666c-0.455111-0.227556-39.367111-19.797333-73.500444-42.325334-20.707556-13.880889-24.576-28.216889-29.582223-46.193777-3.868444-14.108444-8.419556-31.402667-22.755555-55.296-65.536-36.408889-75.093333-68.266667-73.272889-86.926223-132.209778-45.056-139.264-69.176889-135.395556-88.291555l0.910223-4.778667 5.006222-0.910222c45.511111-4.551111 132.437333 15.701333 258.048 60.074667l0.455111 0.227555c3.185778 0 6.371556-0.227556 9.557333-0.455111 17.976889-1.365333 40.504889-2.958222 53.475556 28.444444l0.455111 1.592889c4.323556 31.857778 54.840889 114.915556 69.632 123.562667l5.461333 3.413333-62.805333 110.592zM577.536 253.724444c0.910222 10.467556 16.156444 31.402667 132.437333 70.542223l5.916445 2.048-1.592889 5.916444c-2.958222 10.922667-2.275556 40.732444 67.128889 78.734222l1.592889 0.910223 0.910222 1.592888c15.928889 26.396444 20.935111 45.283556 25.031111 60.302223 4.551111 17.294222 7.509333 27.534222 24.120889 38.684444 25.713778 17.294222 54.613333 32.540444 66.446222 38.684445l50.972445-89.656889c-21.845333-20.707556-65.536-95.800889-70.542223-128.113778-9.329778-21.845333-22.983111-20.935111-40.049777-19.569778-3.868444 0.227556-7.736889 0.682667-11.605334 0.682667l-3.868444-0.910222c-118.784-42.097778-201.614222-61.895111-246.897778-59.847112z" fill="#212121" p-id="11843"></path><path d="M851.057778 403.911111c-1.137778 0-2.275556-0.455111-2.958222-1.365333-5.233778-5.461333-10.012444-10.695111-14.563556-15.701334-27.534222-30.264889-45.966222-50.289778-91.477333-62.577777a4.278044 4.278044 0 0 1-2.958223-5.006223c0.682667-2.275556 2.958222-3.413333 5.006223-2.958222 48.014222 12.970667 67.811556 34.816 95.345777 65.080889l14.336 15.701333c1.592889 1.592889 1.592889 4.323556-0.227555 5.916445-0.455111 0.682667-1.592889 0.910222-2.503111 0.910222z" fill="#212121" p-id="11844"></path><path d="M764.814222 344.974222c-10.24-8.192-23.893333-21.162667-39.139555-9.102222l-1.365334 1.365333c-6.371556 9.329778-3.185778 22.300444 15.701334 34.816 2.048 1.365333 5.006222 1.137778 6.826666-0.682666l18.204445-18.204445c2.275556-2.275556 2.275556-6.144-0.227556-8.192z" fill="#FDEEE5" p-id="11845"></path><path d="M742.968889 374.556444c-1.365333 0-2.730667-0.455111-3.868445-1.137777-10.922667-7.281778-17.749333-15.473778-19.114666-23.438223a17.294222 17.294222 0 0 1 2.958222-13.653333c0.455111-0.682667 0.910222-1.137778 1.592889-1.592889 15.246222-12.060444 29.127111-0.682667 39.139555 7.509334l2.048 1.592888c1.592889 1.137778 2.503111 3.185778 2.730667 5.006223 0 2.048-0.682667 4.096-2.048 5.461333l-18.204444 18.204444c-1.365333 1.365333-3.413333 2.048-5.233778 2.048z m-4.323556-41.642666c-3.868444 0-7.736889 1.365333-11.832889 4.551111l-0.910222 0.910222c-2.275556 3.413333-3.185778 7.281778-2.503111 11.150222 1.365333 7.054222 7.509333 14.336 17.749333 21.162667 1.365333 0.910222 3.413333 0.682667 4.778667-0.455111l18.204445-18.204445a4.323556 4.323556 0 0 0 1.137777-2.958222c0-1.137778-0.455111-2.048-1.365333-2.730666l-2.048-1.592889c-6.826667-5.461333-14.791111-11.832889-23.210667-11.832889z" fill="#212121" p-id="11846"></path><path d="M598.926222 255.544889s-1.592889 12.970667 6.826667 14.108444c8.419556 1.137778 28.899556 4.551111 28.899555 4.551111l4.551112-14.108444s-18.659556-5.688889-40.277334-4.551111z" fill="#FDEEE5" p-id="11847"></path><path d="M635.790222 276.252444l-1.365333-0.227555c-0.227556 0-20.48-3.413333-28.899556-4.551111-7.964444-1.137778-8.874667-10.922667-8.192-15.928889l0.227556-1.365333h1.365333c21.617778-1.137778 40.049778 4.323556 40.96 4.551111l1.592889 0.455111-5.688889 17.066666z m-35.271111-19.114666c-0.227556 3.185778 0.227556 10.24 5.461333 10.922666 7.054222 0.910222 22.755556 3.640889 27.534223 4.323556l3.640889-11.150222c-5.006222-1.137778-20.024889-4.551111-36.636445-4.096zM1006.933333 656.042667l0.227556-19.797334-93.297778-53.703111 73.045333-122.652444 20.252445 29.582222 0.455111-25.031111-13.198222-25.258667a7.805156 7.805156 0 0 0-7.054222-4.323555c-3.640889 0.455111-5.688889 1.592889-7.281778 4.096l-84.878222 142.449777c-1.137778 1.820444-1.365333 4.096-0.910223 6.371556 0.455111 2.048 1.820444 3.868444 3.868445 5.006222l108.771555 63.260445z" fill="#212121" p-id="11848"></path></svg>