<svg width="512" height="512" xmlns="http://www.w3.org/2000/svg" xml:space="preserve" version="1.1">
    
    <!-- <text xml:space="preserve" text-anchor="start" font-family="Brush Script Std" font-size="34" id="svg_52" y="68.57142" x="160" fill="#FF5B62">Happy new year 2024.
        <animate attributeName="y" values="60;90;60" dur=".5s" repeatCount="indefinite" />
    </text> -->
 
    <!-- <g id="qiqiu" transform="rotate(-20.1849 71.5 75.5)">
        <animateTransform attributeName="transform" attributeType="XML" type="rotate" from="0 80 80" to="360 80 80" dur="10s" repeatCount="indefinite" />
        <path id="svg_2" fill="#6FB0B6" d="m102.75,81.49501c-8.94995,0 -17.15845,-4.30742 -22.52295,-11.81926l-0.6626,-0.93012l0.2583,-1.0719c0.698,-2.89212 1.052,-5.76061 1.052,-8.52372c0,-5.58625 -1.2688,-10.97813 -3.77295,-16.023l-0.49585,-1.00101l0.43335,-1.02272c4.4585,-10.55661 14.55249,-17.37826 25.71069,-17.37826c15.5083,0 28.125,12.95823 28.125,28.885s-12.6167,28.885 -28.125,28.885l0.00001,0.00001l0,-0.00002z"/>
        <polygon id="svg_3" fill="#6FB0B6" points="92.20215559005737,94.57500457763672 102.75000715255737,82.54690551757812 112.77490186691284,94.57500457763672 "/>
        <path id="svg_4" fill="#FF877F" d="m46.50001,94.57501c-18.9541,0 -34.375,-15.89229 -34.375,-35.425s15.4209,-35.425 34.375,-35.425s34.375,15.89229 34.375,35.425s-15.4209,35.425 -34.375,35.425z"/>
        <polygon id="svg_5" fill="#FF877F" points="36.08325910568237,105.47502136230469 46.50000715255737,93.4468994140625 56.91675138473511,105.47502136230469 "/>
        <path id="svg_6" fill="#573A32" d="m102.75,21c-11.2041,0 -20.9729,6.04588 -26.48535,15.03647c-6.86059,-9.1196 -17.6333,-15.03647 -29.76465,-15.03647c-20.677,0 -37.5,17.11492 -37.5,38.15c0,18.29391 12.72705,33.60841 29.6438,37.29248l-2.8147,2.45442c-1.7876,1.55878 -2.323,3.90228 -1.35425,5.93858c0.5354,1.1264 1.4917,2.00203 2.6499,2.59067l0,22.57386l6.25,0l0,-21.8l9.375,0c2.5271,0 4.80615,-1.32801 5.7749,-3.36453c0.96655,-2.03651 0.43335,-4.38001 -1.35425,-5.93858l-2.8147,-2.45442c11.72705,-2.55426 21.41455,-10.70733 26.2688,-21.56199c4.38745,4.46176 10.0813,7.5755 16.44385,8.76726l-4.98755,4.34914c-1.7876,1.55878 -2.323,3.90228 -1.35425,5.93858c0.5354,1.1264 1.4917,2.00203 2.6499,2.59067l0,33.47386l6.25,0l0,-32.7l9.37354,0c2.5271,0 4.80615,-1.32801 5.7749,-3.36453c0.96655,-2.03651 0.43335,-4.38001 -1.35425,-5.93858l-4.9646,-4.32913c14.5127,-2.7233 25.54395,-15.60148 25.54395,-31.05776c0,-17.42914 -14.0188,-31.61 -31.25,-31.61l0.00001,-0.00001l0,0.00001zm-62.50001,81.75001l6.25,-5.45l6.25,5.45l-12.5,0zm6.25,-10.9c-17.2583,0 -31.25,-14.64049 -31.25,-32.7s13.9917,-32.7 31.25,-32.7s31.25,14.64049 31.25,32.7s-13.9917,32.7 -31.25,32.7zm62.50001,0l-12.5,0l6.25,-5.45l6.25,5.45zm-6.25,-13.08c-8.17285,0 -15.3291,-4.17478 -19.86865,-10.53489c0.7041,-2.91767 1.11865,-5.94965 1.11865,-9.08511c0,-6.15488 -1.4729,-11.9536 -4.02905,-17.10576c3.875,-9.17047 12.5791,-15.59424 22.77905,-15.59424c13.80615,0 25,11.71197 25,26.16s-11.19385,26.16 -25,26.16z"/>
    </g> -->

    <g id="pingzhi">
        <path id="svg_7" fill="#D9DADA" d="m60.505,206.60099l50.344,0l0,188.451c0,13.845 -11.326,25.171 -25.171,25.171l0,0c-13.845,0 -25.171,-11.326 -25.171,-25.171l0,-188.451l-0.002,0z"/>
        <path id="svg_8" fill="#EEF3F7" d="m60.505,206.60099l46.64,0l0,190.405c0,8 -3.608,15.199 -9.275,20.048c-3.619,2.017 -7.776,3.17 -12.191,3.17l0,0c-13.845,0 -25.174,-11.326 -25.174,-25.174l0,-188.449z"/>
        <path id="svg_9" fill="#FF5B62" d="m65.71,268.50799l0,126.652c0,11.052 9.009,20.131 19.969,20.131c10.963,0 19.969,-9.08 19.969,-20.131l0,-126.652l-39.938,0z"/>
        <path id="svg_10" fill="#EEF3F7" d="m55.831,199.62899l59.696,0c3.899,0 7.059,3.16 7.059,7.058l0,0c0,3.898 -3.161,7.058 -7.059,7.058l-59.696,0c-3.899,0 -7.059,-3.16 -7.059,-7.058l0,0c-0.001,-3.899 3.161,-7.058 7.059,-7.058z"/>
        <path id="svg_11" fill="#CCD8DB" d="m122.587,206.68799c0,3.88 -3.175,7.057 -7.057,7.057l-59.702,0c-3.88,0 -7.057,-3.175 -7.057,-7.057l73.816,0z"/>
        <path id="svg_12" fill="#FEFEFE" d="m80.764,285.37799c2.521,0 4.567,2.046 4.567,4.567s-2.046,4.567 -4.567,4.567c-2.524,0 -4.57,-2.046 -4.57,-4.567c0.001,-2.524 2.047,-4.567 4.57,-4.567zm2.432,77.658c0.671,0 1.217,0.544 1.217,1.217c0,0.671 -0.544,1.217 -1.217,1.217c-0.674,0 -1.217,-0.544 -1.217,-1.217c0,-0.674 0.544,-1.217 1.217,-1.217zm-3.348,-21.015c2.521,0 4.567,2.046 4.567,4.567c0,2.524 -2.046,4.567 -4.567,4.567c-2.524,0 -4.567,-2.046 -4.567,-4.567c-0.001,-2.521 2.045,-4.567 4.567,-4.567zm12.182,-20.099c4.036,0 7.31,3.274 7.31,7.307c0,4.036 -3.274,7.31 -7.31,7.31c-4.036,0 -7.307,-3.274 -7.307,-7.31c-0.001,-4.033 3.271,-7.307 7.307,-7.307z"/>
    </g>

    <g id="paper">
        <rect id="svg_13" fill="#21D0C3" height="364.626" width="281.002" y="121.86" x="166.591"/>
        <polygon id="svg_14" fill="#DCE3DB" points="176.69900512695312,134.47300720214844 428.9330139160156,134.47300720214844 437.4830017089844,475.510009765625 185.24899291992188,475.510009765625 "/>
        <rect id="svg_15" fill="#FFFFFF" height="332.651" width="248.021" y="134.471" x="180.906"/>
        <path id="svg_16" fill="#666666" d="m274.541,112.993l67.926,0c4.891,0 8.893,4.002 8.893,8.893l0,29.195l-85.713,0l0,-29.193c0,-4.892 4.003,-8.895 8.894,-8.895z"/>
        <path id="svg_17" fill="#B0B0B0" d="m263.808,148.876l89.389,0c1.891,0 3.423,1.532 3.423,3.423l0,0.003c0,1.891 -1.532,3.423 -3.423,3.423l-89.389,0c-1.891,0 -3.423,-1.532 -3.423,-3.423l0,-0.003c0,-1.89 1.533,-3.423 3.423,-3.423z"/>
        <path id="svg_18" fill="#FEFEFE" d="m299.571,104.131l-7.23,44.745l-3.72,0l7.209,-44.636c-2.051,-2.843 -3.094,-6.253 -3.094,-9.6c0,-2.145 0.428,-4.271 1.291,-6.221c0.873,-1.967 2.189,-3.749 3.959,-5.176c5.628,-4.541 15.384,-4.546 21.012,-0.003c1.774,1.431 3.094,3.218 3.971,5.192c0.865,1.954 1.296,4.092 1.296,6.242c0,3.336 -1.035,6.731 -3.078,9.566l7.209,44.636l-3.72,0l-7.23,-44.745c-0.108,-0.567 0.06,-1.124 0.407,-1.531c1.829,-2.286 2.754,-5.126 2.754,-7.922c0,-1.657 -0.327,-3.289 -0.982,-4.768c-0.647,-1.458 -1.618,-2.775 -2.911,-3.82c-4.277,-3.452 -12.16,-3.447 -16.434,0.003c-1.291,1.04 -2.257,2.352 -2.9,3.804c-0.65,1.473 -0.974,3.099 -0.974,4.747c0,2.824 0.946,5.696 2.803,8c0.35,0.433 0.468,0.98 0.371,1.486l0,0l-0.009,0.001l0,0z"/>
    </g>


    <g id="text">
        <rect id="svg_31" fill="#D9DADA" height="20.816" width="20.816" y="270.868" x="204.125"/>
        <rect id="svg_32" fill="#D9DADA" height="20.816" width="20.816" y="270.868" x="292.619"/>
        <rect id="svg_33" fill="#15BDB2" height="8.366" width="74.31" y="327.895" x="203.159"/>
        <rect id="svg_35" fill="#D9DADA" height="20.816" width="20.816" y="351.443" x="204.125"/>
        <rect id="svg_36" fill="#D9DADA" height="20.816" width="20.816" y="351.443" x="292.619"/>
        <path id="svg_37" fill="#D9DADA" d="m272.568,403.717l143.572,0l0,4.279l-143.572,0l0,-4.279zm0,28.792l103.884,0l0,4.279l-103.884,0l0,-4.279zm0,-14.396l143.572,0l0,4.279l-143.572,0l0,-4.279z"/>
        <path id="svg_38" fill="#D9DADA" d="m231.327,352.416l32.656,0l0,4.279l-32.656,0l0,-4.279zm0,12.86l23.63,0l0,4.279l-23.63,0l0,-4.279l0,0z"/>
        <path id="svg_39" fill="#D9DADA" d="m323.148,352.416l32.656,0l0,4.279l-32.656,0l0,-4.279zm0,12.86l23.63,0l0,4.279l-23.63,0l0,-4.279l0,0z"/>
        <path id="svg_40" fill="#D9DADA" d="m231.327,271.481l32.656,0l0,4.279l-32.656,0l0,-4.279zm0,12.86l23.63,0l0,4.279l-23.63,0l0,-4.279l0,0z"/>
        <path id="svg_41" fill="#D9DADA" d="m323.148,271.481l32.656,0l0,4.279l-32.656,0l0,-4.279zm0,12.86l23.63,0l0,4.279l-23.63,0l0,-4.279l0,0z"/>
        <path id="svg_45" fill="#0F7986" d="m294.223,278.805c-0.478,-0.486 -0.473,-1.267 0.016,-1.745c0.486,-0.478 1.267,-0.473 1.745,0.013l4.212,4.295l11.407,-12.358c0.462,-0.502 1.244,-0.536 1.748,-0.073c0.502,0.462 0.533,1.244 0.073,1.748l-12.288,13.311l0,0l-0.042,0.045c-0.486,0.478 -1.267,0.473 -1.748,-0.013l-5.121,-5.223l-0.002,0l0,0z"/>
        <path id="svg_46" fill="#0F7986" d="m210.572,278.805c-0.478,-0.486 -0.473,-1.267 0.016,-1.745c0.486,-0.478 1.267,-0.473 1.745,0.013l4.212,4.295l11.407,-12.358c0.462,-0.502 1.244,-0.536 1.748,-0.073c0.502,0.462 0.533,1.244 0.073,1.748l-12.288,13.312l0,0l-0.042,0.045c-0.486,0.478 -1.267,0.473 -1.748,-0.013l-5.121,-5.223l-0.002,0l0,-0.001z"/>
    </g>

    <g id="line1">
        <path id="svg_28" fill="#15BDB2" d="m277.015,196.266c-1.162,0 -2.106,-0.943 -2.106,-2.106s0.943,-2.106 2.106,-2.106l34.765,0l7.802,-18.906c0.439,-1.071 1.666,-1.583 2.74,-1.145c0.549,0.225 0.951,0.658 1.152,1.17l0.008,-0.003l11.572,29.214l9.848,-16.677c0.591,-0.998 1.882,-1.33 2.879,-0.739c0.316,0.188 0.565,0.444 0.739,0.739l5.712,8.755l8.277,-8.803c0.794,-0.844 2.127,-0.886 2.97,-0.092c0.159,0.151 0.29,0.319 0.394,0.502l3.357,5.989l45.083,0c1.162,0 2.106,0.943 2.106,2.106c0,1.162 -0.943,2.106 -2.106,2.106l-46.313,0l0,-0.003c-0.737,0 -1.45,-0.389 -1.834,-1.074l-2.558,-4.564l-8.144,8.658l0,-0.003c-0.115,0.118 -0.243,0.23 -0.387,0.322c-0.969,0.63 -2.273,0.356 -2.903,-0.617l-5.369,-8.235l-10.252,17.361c-0.225,0.439 -0.604,0.8 -1.098,0.993c-1.079,0.426 -2.307,-0.105 -2.733,-1.183l-11.24,-28.374l-6.294,15.255c-0.274,0.844 -1.066,1.455 -2.001,1.455l-36.168,0l-0.004,0.005z"/>
        <rect id="svg_29" fill="#15BDB2" height="8.366" width="74.31" y="247.33" x="203.159"/>
        <path id="svg_48" fill="#FF5B62" d="m212.361,353.67c-0.41,-0.41 -0.41,-1.077 0,-1.489c0.41,-0.41 1.079,-0.41 1.489,0l11.836,11.836c0.41,0.41 0.41,1.079 0,1.489c-0.41,0.41 -1.079,0.41 -1.489,0l-11.836,-11.836z"/>
        <path id="svg_49" fill="#FF5B62" d="m225.686,353.67c0.41,-0.41 0.41,-1.077 0,-1.489c-0.41,-0.41 -1.079,-0.41 -1.489,0l-11.836,11.836c-0.41,0.41 -0.41,1.079 0,1.489c0.41,0.41 1.079,0.41 1.489,0l11.836,-11.836z"/>
        <path id="svg_50" fill="#FF5B62" d="m298.753,352.698c-0.541,-0.541 -0.541,-1.418 0,-1.957c0.541,-0.541 1.418,-0.541 1.957,0l15.566,15.566c0.541,0.541 0.541,1.418 0,1.957c-0.541,0.541 -1.418,0.541 -1.957,0l-15.566,-15.566z"/>
        <path id="svg_51" fill="#FF5B62" d="m316.277,352.698c0.541,-0.541 0.541,-1.418 0,-1.957c-0.541,-0.541 -1.418,-0.541 -1.957,0l-15.566,15.566c-0.541,0.541 -0.541,1.418 0,1.957c0.541,0.541 1.418,0.541 1.957,0l15.566,-15.566z"/>
    </g>


    <g id="hongshizhi">
        <circle id="svg_42" fill="#FF5B62" r="28.987" cy="190.322" cx="225.232"/>
        <path id="svg_43" fill="#FEFEFE" d="m219.624,169.653l11.227,0l0,15.057l15.057,0l0,11.227l-15.057,0l0,15.057l-11.227,0l0,-15.057l-15.057,0l0,-11.227l15.057,0l0,-15.057z"/>
    </g>

    <g id="pen">
        <animateTransform attributeName="transform" attributeType="XML" type="rotate" from="-10 380 300" to="0 380 300" dur="0.5s" repeatCount="indefinite" />
        <path id="svg_24" fill="#21D0C3" d="m380.931,319.945l3.318,2.432l-5.816,7.937c-0.668,0.911 -1.962,1.113 -2.874,0.444l0,0c-0.911,-0.668 -1.113,-1.962 -0.444,-2.874l5.816,-7.937l0,-0.002l0,0z"/>
        <rect  id="svg_19" fill="#0F7986" height="106.477" width="21.419" transform="matrix(0.8067 0.591 -0.591 0.8067 210.589 -211.475)" y="200.39878" x="442.81145"/>
        <rect  id="svg_26" fill="#076673" height="106.477" width="2.656" transform="matrix(0.8067 0.591 -0.591 0.8067 215.328 -214.877)" y="205.94078" x="459.76345"/>
        <path  id="svg_21" fill="#FF5B62" d="m386.439,297.787l17.277,12.659l-17.881,13.092l-6.49,-4.755l7.094,-20.996z"/>
        <path  id="svg_22" fill="#FF5B62" d="m494.828,158.392l9.118,6.681c2.626,1.922 3.198,5.644 1.278,8.267l-37.712,51.479c-0.1,0.135 -0.29,0.164 -0.426,0.066l-18.171,-13.312c-0.133,-0.1 -0.164,-0.288 -0.066,-0.423l37.712,-51.479c1.922,-2.623 5.641,-3.198 8.267,-1.275l0,-0.004l0,0z"/>
        <path  id="svg_23" fill="#ED4C54" d="m505.224,173.337l-37.723,51.492c-0.1,0.121 -0.272,0.149 -0.402,0.063l-0.013,-0.01l-2.197,-1.61l40.939,-55.884c0.854,1.887 0.698,4.17 -0.604,5.949z"/>
        <path  id="svg_25" fill="#FAD24D" d="m486.36,159.942l22.43,16.432l1.209,0.886l-0.935,1.275l-39.611,54.073l-0.364,0.496l-0.599,0.13l-3.909,0.863c-1.69,0.162 -2.417,-2.513 -0.496,-3.025l3.31,-0.731l38.315,-52.302l-21.22,-15.545l1.868,-2.547l0,-0.004l0.002,0l0,-0.001z"/>
    </g>
</svg>