<?xml version="1.0" standalone="no"?><!DOCTYPE svg PUBLIC "-//W3C//DTD SVG 1.1//EN" "http://www.w3.org/Graphics/SVG/1.1/DTD/svg11.dtd"><svg t="1726826199457" class="icon" viewBox="0 0 1024 1024" version="1.1" xmlns="http://www.w3.org/2000/svg" p-id="3605" xmlns:xlink="http://www.w3.org/1999/xlink" width="200" height="200"><path d="M511.2 967l-4.1-2.4C349.4 871.1 255.2 715 255.2 547.1s94.2-324 251.9-417.5l4.1-2.4 4.1 2.4c157.8 93.5 251.9 249.5 251.9 417.5 0 167.9-94.2 324-251.9 417.5l-4.1 2.4z m0-821.1c-150.4 90.8-240 240.5-240 401.3s89.6 310.4 240 401.3c150.4-90.8 240-240.5 240-401.3s-89.6-310.5-240-401.3z" fill="#13227a" p-id="3606"></path><path d="M513.4 969.4l-3.6-3.1C369.7 848 302.6 678.5 330.5 512.9l7.9 1.3-7.9-1.3C358.3 347.3 477.1 209 648.1 143l4.4-1.7 3.6 3.1c140.1 118.3 207.1 287.8 179.3 453.4-27.8 165.6-146.6 303.9-317.6 369.9l-4.4 1.7z m136.1-809.8C486.1 224.2 372.9 357 346.3 515.5c-26.6 158.6 36.9 321 170.2 435.5C679.8 886.4 793 753.7 819.7 595.1s-37-321-170.2-435.5z" fill="#13227a" p-id="3607"></path><path d="M517.2 969.4l-4.4-1.7c-171.1-66-289.8-204.3-317.6-369.9-27.8-165.6 39.2-335.1 179.3-453.4l3.6-3.1 4.4 1.7c171.1 66 289.8 204.3 317.6 369.9 27.8 165.6-39.2 335.1-179.3 453.4l-3.6 3.1zM381.1 159.6c-133.3 114.5-196.8 277-170.2 435.5C237.6 753.7 350.8 886.4 514.1 951 647.4 836.5 711 674.1 684.3 515.5 657.7 357 544.5 224.2 381.1 159.6z" fill="#13227a" p-id="3608"></path><path d="M514.3 966.3l-4.7-0.8c-181.1-29-326-139.6-387.6-295.8C60.4 513.6 90.7 333.8 203.1 189l2.9-3.7 4.7 0.8c181.1 29 326 139.6 387.6 295.8s31.4 335.9-81.1 480.8l-2.9 3.6zM212.8 202.6C106.3 342.3 77.8 514.4 136.9 664c59 149.5 197.3 255.9 370.6 285.1 106.5-139.7 135-311.8 75.9-461.4-59-149.6-197.3-255.9-370.6-285.1z" fill="#13227a" p-id="3609"></path><path d="M508.3 966.3l-2.9-3.7C393 817.7 362.7 638 424.4 481.8l7.4 2.9-7.4-2.9C486 325.6 630.9 215 812 186l4.7-0.8 2.9 3.7c112.4 144.9 142.7 324.7 81 480.9C839 826 694.1 936.6 513 965.6l-4.7 0.7z m301.5-763.7c-173.2 29.3-311.5 135.6-370.6 285.1-59 149.5-30.6 321.7 75.9 461.4C688.3 919.8 826.6 813.5 885.7 664s30.7-321.8-75.9-461.4z" fill="#13227a" p-id="3610"></path></svg>